<svg aria-hidden="true" style="position: absolute; width: 0; height: 0; overflow: hidden;" version="1.1" xmlns="http://www.w3.org/2000/svg" xmlns:xlink="http://www.w3.org/1999/xlink">
<defs>
<symbol id="logo" viewBox="0 0 32 32">
<path d="M29.082 0.314h-4.009c-1.237 0-2.24 0.983-2.24 2.195v3.929c0 1.212 1.003 2.195 2.24 2.195h4.009c1.237 0 2.24-0.983 2.24-2.195v-3.929c0-1.212-1.003-2.195-2.24-2.195z"></path>
<path d="M6.73 23.040h-4.318c-1.332 0-2.412 0.983-2.412 2.195v3.929c0 1.213 1.080 2.195 2.412 2.195h4.318c1.332 0 2.412-0.983 2.412-2.195v-3.929c0-1.212-1.080-2.195-2.412-2.195z"></path>
<path d="M6.25 11.582h-4.009c-1.237 0-2.24 0.983-2.24 2.195v3.929c0 1.212 1.003 2.195 2.24 2.195h4.009c1.237 0 2.24-0.983 2.24-2.195v-3.929c0-1.212-1.003-2.195-2.24-2.195z"></path>
<path d="M17.766 22.978h-4.009c-1.237 0-2.24 0.983-2.24 2.195l-0 3.929c0 1.212 1.003 2.195 2.241 2.195h4.009c1.237 0 2.24-0.983 2.24-2.195v-3.929c0-1.213-1.003-2.195-2.24-2.195z"></path>
<path d="M6.25 0.086h-4.009c-1.237 0-2.24 0.983-2.24 2.195v3.929c0 1.212 1.003 2.195 2.24 2.195h4.009c1.237 0 2.24-0.983 2.24-2.195v-3.929c0-1.212-1.003-2.195-2.24-2.195z"></path>
<path d="M18.076 11.697h-4.009c-1.237 0-2.24 0.983-2.24 2.195v3.929c0 1.212 1.003 2.195 2.24 2.195h4.009c1.237 0 2.24-0.983 2.24-2.195v-3.929c0-1.212-1.003-2.195-2.24-2.195z"></path>
<path d="M29.333 22.978h-4.010c-1.237 0-2.24 0.983-2.24 2.195v3.929c0 1.212 1.003 2.195 2.24 2.195h4.009c1.237 0 2.24-0.983 2.24-2.195v-3.929c0-1.213-1.003-2.195-2.24-2.195z"></path>
<path d="M17.591 0.224h-4.009c-1.237 0-2.24 0.983-2.24 2.195v3.929c0 1.212 1.003 2.195 2.24 2.195h4.009c1.237 0 2.24-0.984 2.24-2.196v-3.929c0-1.212-1.003-2.195-2.24-2.195z"></path>
<path d="M29.044 11.926h-4.010c-1.237 0-2.24 0.983-2.24 2.195v3.929c0 1.212 1.003 2.195 2.24 2.195h4.009c1.237 0 2.24-0.983 2.24-2.195v-3.929c0-1.212-1.003-2.195-2.24-2.195z"></path>
</symbol>
<symbol id="menu-burger" viewBox="0 0 32 32">
<path d="M2.667 7.993c0-0.733 0.595-1.327 1.327-1.327h10.68c0.352 0 0.689 0.14 0.938 0.389s0.389 0.586 0.389 0.938c0 0.352-0.14 0.689-0.389 0.938s-0.586 0.389-0.938 0.389h-10.68c-0.352 0-0.689-0.14-0.938-0.389s-0.389-0.586-0.389-0.938zM2.667 16c0-0.733 0.595-1.327 1.327-1.327h24.013c0.352 0 0.689 0.14 0.938 0.389s0.389 0.586 0.389 0.938c0 0.352-0.14 0.689-0.389 0.938s-0.586 0.389-0.938 0.389h-24.013c-0.352 0-0.689-0.14-0.938-0.389s-0.389-0.586-0.389-0.938zM3.993 22.68c-0.352 0-0.689 0.14-0.938 0.389s-0.389 0.586-0.389 0.938c0 0.352 0.14 0.689 0.389 0.938s0.586 0.389 0.938 0.389h16.013c0.352 0 0.689-0.14 0.938-0.389s0.389-0.586 0.389-0.938c0-0.352-0.14-0.689-0.389-0.938s-0.586-0.389-0.938-0.389h-16.013z"></path>
</symbol>
<symbol id="menu-close" viewBox="0 0 32 32">
<path stroke-linejoin="round" stroke-linecap="round" stroke-miterlimit="4" stroke-width="2.6667" d="M24 8l-16 16"></path>
<path stroke-linejoin="round" stroke-linecap="round" stroke-miterlimit="4" stroke-width="2.6667" d="M8 8l16 16"></path>
</symbol>
<symbol id="basket" viewBox="0 0 32 32">
<path d="M25.333 9.333h-4v-1.333c0-1.415-0.562-2.771-1.562-3.771s-2.357-1.562-3.771-1.562c-1.415 0-2.771 0.562-3.771 1.562s-1.562 2.357-1.562 3.771v1.333h-4c-0.354 0-0.693 0.14-0.943 0.39s-0.391 0.589-0.391 0.943v14.667c0 1.061 0.421 2.078 1.172 2.828s1.768 1.172 2.828 1.172h13.333c1.061 0 2.078-0.422 2.828-1.172s1.172-1.768 1.172-2.828v-14.667c0-0.354-0.14-0.693-0.39-0.943s-0.589-0.39-0.943-0.39zM13.333 8c0-0.707 0.281-1.386 0.781-1.886s1.178-0.781 1.886-0.781c0.707 0 1.386 0.281 1.886 0.781s0.781 1.178 0.781 1.886v1.333h-5.333v-1.333zM24 25.333c0 0.354-0.14 0.693-0.39 0.943s-0.589 0.391-0.943 0.391h-13.333c-0.354 0-0.693-0.141-0.943-0.391s-0.391-0.589-0.391-0.943v-13.333h2.667v1.333c0 0.354 0.14 0.693 0.391 0.943s0.589 0.391 0.943 0.391 0.693-0.141 0.943-0.391c0.25-0.25 0.39-0.589 0.39-0.943v-1.333h5.333v1.333c0 0.354 0.14 0.693 0.39 0.943s0.589 0.391 0.943 0.391 0.693-0.141 0.943-0.391c0.25-0.25 0.39-0.589 0.39-0.943v-1.333h2.667v13.333z"></path>
</symbol>
</defs>
</svg>
