<?xml version="1.0" standalone="no"?>
<!DOCTYPE svg PUBLIC "-//W3C//DTD SVG 20010904//EN"
 "http://www.w3.org/TR/2001/REC-SVG-20010904/DTD/svg10.dtd">
<svg version="1.0" xmlns="http://www.w3.org/2000/svg"
 width="700.000000pt" height="700.000000pt" viewBox="0 0 700.000000 700.000000"
 preserveAspectRatio="xMidYMid meet">
<metadata>
Created by potrace 1.14, written by Peter Selinger 2001-2017
</metadata>
<g transform="translate(0.000000,700.000000) scale(0.100000,-0.100000)"
fill="#000000" stroke="none">
<path d="M3219 5796 c-2 -2 -34 -6 -71 -10 -74 -7 -202 -44 -287 -84 -180 -84
-333 -227 -437 -409 -43 -75 -43 -76 -54 -49 -62 164 -183 300 -332 373 -115
57 -171 67 -363 68 l-140 0 1 -170 c0 -158 2 -175 28 -249 89 -258 310 -429
586 -453 72 -6 92 -13 39 -13 -19 0 -74 -7 -124 -15 -130 -20 -126 -20 -300
-68 -88 -24 -286 -108 -380 -159 -93 -52 -236 -144 -271 -175 -10 -10 -41 -35
-67 -56 -68 -55 -180 -169 -242 -247 -377 -472 -468 -1068 -249 -1615 63 -157
175 -337 297 -475 102 -117 159 -167 342 -308 50 -39 349 -202 370 -202 4 0
21 -7 38 -15 89 -41 312 -102 452 -124 127 -20 159 -22 335 -26 296 -6 546 40
820 150 188 75 411 209 561 338 l76 65 84 -86 c183 -186 374 -307 609 -387
160 -55 274 -74 470 -80 257 -7 492 48 728 170 375 195 663 551 771 955 11 41
23 93 27 115 3 22 8 43 10 46 6 11 19 203 15 235 -1 7 -69 10 -216 10 -118 -1
-215 0 -215 0 0 1 20 11 44 23 89 41 147 138 140 233 -8 105 -106 350 -182
454 -40 55 -119 94 -186 94 -58 -1 -118 -20 -147 -46 -16 -14 -14 -8 7 31 53
94 36 215 -41 289 -98 95 -408 215 -520 202 -97 -12 -200 -106 -207 -190 -3
-28 -10 -26 -15 5 -11 71 -82 147 -163 174 -56 18 -99 16 -190 -10 -30 -9 -64
-19 -75 -22 -54 -15 -264 -125 -293 -154 -40 -39 -69 -93 -75 -140 -3 -19 -6
-36 -6 -38 -1 -2 -15 23 -32 55 -294 557 -892 933 -1589 999 -98 10 -91 -2
-75 122 21 163 122 347 251 458 147 127 304 187 511 194 43 1 91 43 99 87 8
42 -10 90 -43 111 -20 13 -114 27 -124 19z"/>
</g>
</svg>
